PathFileType	3	(X/Y/Z)	D:\VICON_DB\Goncalves\Pilot01\09-03-2026\bw_sq_140_02.trc
DataRate	CameraRate	NumFrames	NumMarkers	Units	OrigDataRate	OrigDataStartFrame	OrigNumFrames
200.0	200.0	8	34	mm	200.0	88	703	
Frame#	Time	LASI			RASI			LPSI			RPSI			LTHI			LTHAP			LTHAD			LKNE			LKNM			LTIB			LTIAP			LTIAD			LANK			LMED			LHEE			LTOE			LFMH			LSMH			LVMH			RTHI			RTHAP			RTHAD			RKNE			RKNM			RTIB			RTIAP			RTIAD			RANK			RMED			RHEE			RTOE			RFMH			RSMH			RVMH			
		X1	Y1	Z1	X2	Y2	Z2	X3	Y3	Z3	X4	Y4	Z4	X5	Y5	Z5	X6	Y6	Z6	X7	Y7	Z7	X8	Y8	Z8	X9	Y9	Z9	X10	Y10	Z10	X11	Y11	Z11	X12	Y12	Z12	X13	Y13	Z13	X14	Y14	Z14	X15	Y15	Z15	X16	Y16	Z16	X17	Y17	Z17	X18	Y18	Z18	X19	Y19	Z19	X20	Y20	Z20	X21	Y21	Z21	X22	Y22	Z22	X23	Y23	Z23	X24	Y24	Z24	X25	Y25	Z25	X26	Y26	Z26	X27	Y27	Z27	X28	Y28	Z28	X29	Y29	Z29	X30	Y30	Z30	X31	Y31	Z31	X32	Y32	Z32	X33	Y33	Z33	X34	Y34	Z34	
88	0.435	95.743935	865.63269	-1090.9441	92.477585	865.77661	-1350.9811				295.37289	910.57812	-1254.5475	121.90205	684.32874	-1003.0513	136.71547	751.50854	-1017.0952	174.47539	628.70233	-970.0061	213.13637	470.7193	-952.28467				259.67343	288.01929	-890.47418	181.63794	352.89209	-932.74493	210.09653	262.62845	-881.24628	269.28098	77.43692	-844.9325				279.58664	56.584019	-910.90948	187.50409	72.922256	-819.93195	125.55158	45.402718	-814.25989				173.28667	25.295834	-749.06787	166.60722	626.04718	-1462.1049	113.04988	738.98047	-1409.5756	98.12767	651.12036	-1426.36	212.14584	487.08224	-1470.5417				247.0627	306.20221	-1536.004	182.87108	345.77676	-1497.9584	188.63063	269.07886	-1524.656	266.67044	63.006222	-1568.7354				275.84851	54.291954	-1517.2233	180.91591	71.446236	-1607.8853	122.76499	51.750916	-1612.6772				169.62347	18.869545	-1668.9645
89	0.44	95.919617	865.646	-1090.9224	92.593689	865.73816	-1350.9135				295.44958	910.67188	-1254.5427	121.98342	684.422	-1002.9871	136.83104	751.58246	-1017.0278	174.46729	628.77631	-969.87604	212.88705	470.75897	-952.0907				259.50397	288.02957	-890.35828	181.40297	352.90936	-932.5213	209.95827	262.60742	-881.11047	269.26831	77.437157	-844.94897				279.57846	56.595474	-910.86407	187.49196	72.906601	-819.92529	125.54885	45.395744	-814.2525				173.28764	25.290926	-749.06335	166.58705	626.1272	-1462.2184	113.13955	739.06506	-1409.6042	98.13871	651.21783	-1426.41	212.00134	487.11954	-1470.6743				246.94589	306.20084	-1536.0933	182.71805	345.79083	-1498.0963	188.52115	269.07349	-1524.7604	266.6629	63.009159	-1568.7394				275.98239	54.352936	-1517.1887	180.91214	71.443161	-1607.8823	122.76307	51.753918	-1612.6885				169.62572	18.865517	-1668.967
90	0.445	96.108955	865.65204	-1090.8983	92.713829	865.69623	-1350.8417				295.5278	910.77209	-1254.5383	122.07597	684.51874	-1002.9187	136.95682	751.65771	-1016.9562	174.46588	628.85297	-969.73816	212.62961	470.79984	-951.88513				259.32974	288.03876	-890.23676	181.15836	352.92627	-932.28571	209.81541	262.58502	-880.96594	269.25522	77.436371	-844.96619				279.56964	56.607265	-910.81635	187.48109	72.890495	-819.91675	125.54622	45.388432	-814.24402				173.28868	25.285009	-749.05817	166.56377	626.21216	-1462.3362	113.23182	739.15247	-1409.6302	98.147255	651.32068	-1426.463	211.84885	487.16077	-1470.8142				246.82422	306.2002	-1536.1881	182.55565	345.80661	-1498.2449	188.40695	269.06808	-1524.8707	266.65506	63.012348	-1568.7434				276.10159	54.410267	-1517.1542	180.90784	71.439682	-1607.8798	122.76141	51.756405	-1612.6996				169.62794	18.861406	-1668.9695
91	0.45	96.312279	865.65112	-1090.8719	92.838875	865.65082	-1350.7657				295.6077	910.87915	-1254.5344	122.18017	684.61963	-1002.8456	137.09343	751.73505	-1016.8804	174.47141	628.93292	-969.59216	212.36372	470.84232	-951.66693				259.15039	288.04712	-890.1087	180.90356	352.94293	-932.03778	209.6682	262.56082	-880.81244	269.2417	77.434631	-844.98376				279.55969	56.619946	-910.76782	187.47116	72.874161	-819.90582	125.5437	45.380844	-814.23474				173.2897	25.278061	-749.05243	166.53682	626.30273	-1462.4574	113.32677	739.24261	-1409.6531	98.153412	651.42914	-1426.5168	211.68781	487.20618	-1470.9617				246.6969	306.20044	-1536.2894	182.38359	345.82333	-1498.4039	188.28735	269.06241	-1524.9874	266.64703	63.015858	-1568.7472				276.20352	54.462795	-1517.1202	180.903	71.435974	-1607.8771	122.76001	51.758564	-1612.7108				169.63014	18.857298	-1668.9722
92	0.455	96.529556	865.64398	-1090.8435	92.969849	865.60187	-1350.6854				295.68958	910.99359	-1254.5311	122.29642	684.72504	-1002.7679	137.24161	751.81494	-1016.8008	174.48404	629.01691	-969.43732	212.08923	470.88681	-951.43542				258.96564	288.05496	-889.97321	180.63832	352.95947	-931.77692	209.51649	262.53497	-880.64996	269.22754	77.431992	-845.0014				279.54813	56.634083	-910.71979	187.46199	72.857773	-819.89233	125.54137	45.373096	-814.22443				173.29063	25.270092	-749.0459	166.50568	626.39911	-1462.5822	113.4243	739.33514	-1409.671	98.15712	651.54333	-1426.5708	211.5175	487.25607	-1471.1169				246.5631	306.20154	-1536.3975	182.2018	345.84009	-1498.5729	188.16148	269.05615	-1525.1106	266.63876	63.019691	-1568.7512				276.28714	54.509758	-1517.0863	180.89769	71.432144	-1607.8746	122.75889	51.760593	-1612.7222				169.63222	18.853256	-1668.9744
93	0.46	96.760597	865.63153	-1090.8136	93.107788	865.54962	-1350.6008				295.77393	911.11597	-1254.5288	122.42486	684.83594	-1002.6848	137.40218	751.89844	-1016.7175	174.50388	629.1059	-969.27307	211.80618	470.93375	-951.18994				258.77518	288.06296	-889.82947	180.36243	352.97583	-931.50287	209.35962	262.50793	-880.47797	269.21265	77.428688	-845.01886				279.53461	56.650211	-910.67377	187.45345	72.841591	-819.87634	125.53933	45.365307	-814.21326				173.29147	25.261118	-749.03876	166.46977	626.50134	-1462.7092	113.52425	739.42999	-1409.6841	98.158257	651.66339	-1426.6229	211.33717	487.31042	-1471.2803				246.42189	306.20352	-1536.5123	182.01015	345.85605	-1498.7513	188.0285	269.04889	-1525.2401	266.63019	63.023888	-1568.7554				276.35248	54.550728	-1517.0519	180.89186	71.428307	-1607.8721	122.75795	51.762642	-1612.7333				169.63417	18.849333	-1668.9767
94	0.465	97.005127	865.61481	-1090.7828	93.253708	865.49408	-1350.5122				295.86108	911.24652	-1254.5272	122.56548	684.95282	-1002.5965	137.57614	751.9859	-1016.6312	174.53096	629.20032	-969.09937	211.51463	470.98358	-950.92987				258.5787	288.07162	-889.67651	180.07581	352.99185	-931.21484	209.19691	262.48029	-880.29584	269.19696	77.424973	-845.03564				279.51898	56.668762	-910.63043	187.4456	72.82589	-819.8576	125.53767	45.357609	-814.20148				173.29218	25.251183	-749.03094	166.42853	626.60944	-1462.8378	113.62634	739.52747	-1409.6912	98.156555	651.78955	-1426.6721	211.14598	487.36917	-1471.4519				246.27226	306.20639	-1536.6344	181.80838	345.87057	-1498.9387	187.88757	269.04028	-1525.376	266.62134	63.028431	-1568.76				276.40012	54.585529	-1517.0165	180.88551	71.424583	-1607.8694	122.7571	51.764847	-1612.7441				169.63599	18.845573	-1668.9785
95	0.47	97.262909	865.59521	-1090.7517	93.40863	865.43567	-1350.4193				295.95178	911.3858	-1254.5266	122.71808	685.07617	-1002.5023	137.76469	752.07831	-1016.5428	174.56525	629.30115	-968.91565	211.21486	471.0369	-950.65491				258.37598	288.0816	-889.51367	179.77855	353.00745	-930.9126	209.02794	262.45251	-880.10333	269.18027	77.42112	-845.05151				279.50134	56.690083	-910.59045	187.43855	72.810936	-819.83606	125.53648	45.350128	-814.18903				173.29269	25.240337	-749.0224	166.38152	626.72314	-1462.967	113.73027	739.62756	-1409.6926	98.151703	651.92206	-1426.7177	210.94301	487.43219	-1471.632				246.11316	306.21027	-1536.7642	181.59624	345.88348	-1499.1343	187.73799	269.02985	-1525.5182	266.61218	63.033321	-1568.7653				276.43134	54.614151	-1516.9794	180.87863	71.421013	-1607.8667	122.75621	51.767288	-1612.7549				169.63768	18.842031	-1668.98
